<svg width="562" height="46" viewBox="0 0 562 46" fill="none" xmlns="http://www.w3.org/2000/svg">
<path d="M34.5 7.36H21.16V46H13.8V7.36H0.46V0.919999H34.5V7.36ZM81.8692 46H74.5092V26.68H50.5892V46H43.2292V0.919999H50.5892V25.76L56.1092 20.24H74.5092V0.919999H81.8692V46ZM130.593 46H98.3933V13.8L104.833 7.36H98.3933V0.919999H130.593V7.36H105.753V25.76L111.273 20.24H130.593V26.68H105.753V39.56H130.593V46ZM195.011 46H162.811V0.919999H170.171V39.56H187.651V33.12H195.011V46ZM242.869 46H235.509V33.12H211.589V46H204.229V7.36C204.229 5.58133 204.843 4.07866 206.069 2.852C207.357 1.564 208.891 0.919999 210.669 0.919999H242.869V46ZM235.509 26.68V7.36H211.589V32.2L217.109 26.68H235.509ZM289.753 39.56C289.753 41.3387 289.109 42.872 287.821 44.16C286.595 45.3867 285.092 46 283.313 46H257.553V39.56H282.393V26.68H263.993C262.215 26.68 260.681 26.0667 259.393 24.84C258.167 23.552 257.553 22.0187 257.553 20.24V7.36C257.553 5.58133 258.167 4.07866 259.393 2.852C260.681 1.564 262.215 0.919999 263.993 0.919999H289.753V7.36H264.913V20.24H283.313C285.092 20.24 286.595 20.884 287.821 22.172C289.109 23.3987 289.753 24.9013 289.753 26.68V39.56ZM330.715 7.36H317.375V46H310.015V7.36H296.675V0.919999H330.715V7.36ZM396.042 39.56C396.042 41.3387 395.398 42.872 394.11 44.16C392.883 45.3867 391.381 46 389.602 46H363.842C362.063 46 360.53 45.3867 359.242 44.16C358.015 42.872 357.402 41.3387 357.402 39.56V7.36C357.402 5.58133 358.015 4.07866 359.242 2.852C360.53 1.564 362.063 0.919999 363.842 0.919999H389.602C391.381 0.919999 392.883 1.564 394.11 2.852C395.398 4.07866 396.042 5.58133 396.042 7.36V39.56ZM388.682 39.56V7.36H364.762V39.56H388.682ZM444.328 33.12H419.488V46H412.128V13.8L418.568 7.36H412.128V0.919999H444.328V7.36H419.488V32.2L425.008 26.68H444.328V33.12ZM514.287 46H506.927V40.48L501.407 46H482.087C480.309 46 478.775 45.3867 477.487 44.16C476.261 42.872 475.647 41.3387 475.647 39.56V0.919999H483.007V39.56H506.927V0.919999H514.287V46ZM561.171 39.56C561.171 41.3387 560.527 42.872 559.239 44.16C558.013 45.3867 556.51 46 554.731 46H528.971V39.56H553.811V26.68H535.411C533.633 26.68 532.099 26.0667 530.811 24.84C529.585 23.552 528.971 22.0187 528.971 20.24V7.36C528.971 5.58133 529.585 4.07866 530.811 2.852C532.099 1.564 533.633 0.919999 535.411 0.919999H561.171V7.36H536.331V20.24H554.731C556.51 20.24 558.013 20.884 559.239 22.172C560.527 23.3987 561.171 24.9013 561.171 26.68V39.56Z" fill="white"/>
</svg>
